<svg version="1.1" viewBox="0.0 0.0 526.3044619422573 375.3254593175853" fill="none" stroke="none" stroke-linecap="square" stroke-miterlimit="10" xmlns:xlink="http://www.w3.org/1999/xlink" xmlns="http://www.w3.org/2000/svg"><clipPath id="p.0"><path d="m0 0l526.30444 0l0 375.32547l-526.30444 0l0 -375.32547z" clip-rule="nonzero"/></clipPath><g clip-path="url(#p.0)"><path fill="#000000" fill-opacity="0.0" d="m0 0l526.30444 0l0 375.32547l-526.30444 0z" fill-rule="evenodd"/><path fill="#000000" fill-opacity="0.0" d="m106.144356 187.66273l0 0c0 -86.71306 70.29482 -157.00787 157.00787 -157.00787l0 0c41.641083 0 81.57666 16.541853 111.02133 45.98654c29.444702 29.444687 45.98654 69.38026 45.98654 111.02134l0 0c0 86.71306 -70.2948 157.00786 -157.00787 157.00786l0 0c-86.71304 0 -157.00787 -70.2948 -157.00787 -157.00786z" fill-rule="evenodd"/><path stroke="#999999" stroke-width="8.0" stroke-linejoin="round" stroke-linecap="butt" d="m106.144356 187.66273l0 0c0 -86.71306 70.29482 -157.00787 157.00787 -157.00787l0 0c41.641083 0 81.57666 16.541853 111.02133 45.98654c29.444702 29.444687 45.98654 69.38026 45.98654 111.02134l0 0c0 86.71306 -70.2948 157.00786 -157.00787 157.00786l0 0c-86.71304 0 -157.00787 -70.2948 -157.00787 -157.00786z" fill-rule="evenodd"/><path fill="#000000" fill-opacity="0.0" d="m157.45782 302.00125l0 0c0.63897705 -58.14676 48.125763 -104.85721 106.27515 -104.53772c58.149384 0.31950378 105.120056 47.548935 105.120056 105.69919l-105.700806 0z" fill-rule="evenodd"/><path fill="#000000" fill-opacity="0.0" d="m157.45782 302.00125l0 0c0.63897705 -58.14676 48.125763 -104.85721 106.27515 -104.53772c58.149384 0.31950378 105.120056 47.548935 105.120056 105.69919" fill-rule="evenodd"/><path stroke="#999999" stroke-width="8.0" stroke-linejoin="round" stroke-linecap="butt" d="m157.45782 302.00125l0 0c0.63897705 -58.14676 48.125763 -104.85721 106.27515 -104.53772c58.149384 0.31950378 105.120056 47.548935 105.120056 105.69919" fill-rule="evenodd"/><path fill="#999999" d="m199.24672 115.88189l0 0c0 -35.294037 28.611465 -63.90551 63.905502 -63.90551l0 0c16.948792 0 33.20343 6.7328796 45.18802 18.717491c11.984619 11.984604 18.717499 28.239227 18.717499 45.18802l0 0c0 35.294044 -28.61148 63.90551 -63.905518 63.90551l0 0c-35.294037 0 -63.905502 -28.611465 -63.905502 -63.90551z" fill-rule="evenodd"/><path stroke="#999999" stroke-width="8.0" stroke-linejoin="round" stroke-linecap="butt" d="m199.24672 115.88189l0 0c0 -35.294037 28.611465 -63.90551 63.905502 -63.90551l0 0c16.948792 0 33.20343 6.7328796 45.18802 18.717491c11.984619 11.984604 18.717499 28.239227 18.717499 45.18802l0 0c0 35.294044 -28.61148 63.90551 -63.905518 63.90551l0 0c-35.294037 0 -63.905502 -28.611465 -63.905502 -63.90551z" fill-rule="evenodd"/><path fill="#999999" d="m166.74278 266.91077l0 0c0 -38.35553 43.163986 -69.44882 96.40944 -69.44882l0 0c53.245483 0 96.409454 31.093292 96.409454 69.44882l0 0c0 38.35553 -43.16397 69.44882 -96.409454 69.44882l0 0c-53.245453 0 -96.40944 -31.093292 -96.40944 -69.44882z" fill-rule="evenodd"/><path fill="#999999" d="m176.0105 309.80316l0 0c0 -19.056 38.41185 -34.503937 85.79529 -34.503937l0 0c47.383423 0 85.79526 15.447937 85.79526 34.503937l0 0c0 19.056 -38.411835 34.503937 -85.79526 34.503937l0 0c-47.38344 0 -85.79529 -15.447937 -85.79529 -34.503937z" fill-rule="evenodd"/><path fill="#999999" d="m160.97375 273.71667l0 0c0 -3.522522 2.8555603 -6.3780823 6.3780823 -6.3780823l25.51155 0l0 0c1.6915741 0 3.313858 0.67196655 4.5099792 1.8680725c1.1961212 1.1961365 1.868103 2.8184204 1.868103 4.51001l0 34.109955c0 3.522522 -2.8555603 6.3780823 -6.3780823 6.3780823l-25.51155 0c-3.522522 0 -6.3780823 -2.8555603 -6.3780823 -6.3780823z" fill-rule="evenodd"/><path fill="#999999" d="m339.2152 296.9685l0 0c0 -11.967621 4.554718 -21.669281 10.173248 -21.669281l0 0c2.6980896 0 5.2857056 2.2829895 7.1935425 6.3467712c1.9078674 4.0637817 2.9796753 9.575439 2.9796753 15.32251l0 0c0 11.967621 -4.554718 21.669281 -10.173218 21.669281l0 0c-5.6185303 0 -10.173248 -9.70166 -10.173248 -21.669281z" fill-rule="evenodd"/><path fill="#999999" d="m352.91602 267.3386l12.37796 0l0 40.6929l-12.37796 0z" fill-rule="evenodd"/></g></svg>